<?xml version="1.0" encoding="UTF-8" standalone="no"?>
<svg width="62px" height="62px" viewBox="0 0 62 62" version="1.1" xmlns="http://www.w3.org/2000/svg" xmlns:xlink="http://www.w3.org/1999/xlink">
    <!-- Generator: Sketch 3.8.2 (29753) - http://www.bohemiancoding.com/sketch -->
    <title>chain</title>
    <desc>Created with Sketch.</desc>
    <defs></defs>
    <g id="Page-1" stroke="none" stroke-width="1" fill="none" fill-rule="evenodd">
        <g id="Desktop-HD-Copy-3" transform="translate(-569.000000, -693.000000)">
            <g id="chain" transform="translate(570.000000, 694.000000)">
                <ellipse id="Oval-15-Copy-4" stroke="#646766" fill="#FFFFFF" cx="30" cy="30" rx="30" ry="30"></ellipse>
                <g id="link" transform="translate(15.970948, 19.000000)" fill="#646766">
                    <path d="M6.3445284,12.6890568 L8.4593712,12.6890568 L8.4593712,14.8038996 L6.3445284,14.8038996 C3.1722642,14.8038996 0,11.2298153 0,7.4019498 C0,3.57408433 3.27800634,0 6.3445284,0 L14.8038996,0 C17.8704217,0 21.148428,3.57408433 21.148428,7.4019498 C21.148428,10.3838782 19.2239211,13.1543222 16.9187424,14.2751889 L16.9187424,11.8219713 C18.1453512,10.870292 19.0335852,9.1361209 19.0335852,7.4019498 C19.0335852,4.69495102 16.8764455,2.1148428 14.8038996,2.1148428 L6.3445284,2.1148428 C4.27198246,2.1148428 2.1148428,4.69495102 2.1148428,7.4019498 C2.1148428,10.1089486 4.2296856,12.6890568 6.3445284,12.6890568 L6.3445284,12.6890568 Z M25.3781136,6.3445284 L23.2632708,6.3445284 L23.2632708,8.4593712 L25.3781136,8.4593712 C27.4929564,8.4593712 29.6077992,11.0394794 29.6077992,13.7464782 C29.6077992,16.453477 27.4506596,19.0335852 25.3781136,19.0335852 L16.9187424,19.0335852 C14.8461965,19.0335852 12.6890568,16.453477 12.6890568,13.7464782 C12.6890568,11.9911587 13.5772908,10.278136 14.8038996,9.32645675 L14.8038996,6.8732391 C12.498721,7.99410579 10.574214,10.7645499 10.574214,13.7464782 C10.574214,17.5743437 13.8522203,21.148428 16.9187424,21.148428 L25.3781136,21.148428 C28.4446357,21.148428 31.722642,17.5743437 31.722642,13.7464782 C31.722642,9.91861274 28.5503778,6.3445284 25.3781136,6.3445284 L25.3781136,6.3445284 Z" id="Shape"></path>
                </g>
            </g>
        </g>
    </g>
</svg>