<?xml version="1.0" encoding="UTF-8" standalone="no"?>
<svg width="85px" height="25px" viewBox="0 0 85 25" version="1.1" xmlns="http://www.w3.org/2000/svg" xmlns:xlink="http://www.w3.org/1999/xlink">
    <!-- Generator: Sketch 3.8.2 (29753) - http://www.bohemiancoding.com/sketch -->
    <title>Group 2</title>
    <desc>Created with Sketch.</desc>
    <defs></defs>
    <g id="Page-1" stroke="none" stroke-width="1" fill="none" fill-rule="evenodd">
        <g id="Desktop-HD-Copy-3" transform="translate(-250.000000, -31.000000)">
            <g id="Group-2" transform="translate(250.000000, 31.000000)">
                <path d="M43.368,17.6899895 C43.368,18.3019895 43.854,18.7699895 44.448,18.7699895 C45.06,18.7699895 45.546,18.3019895 45.546,17.6899895 L45.546,14.3239895 C46.212,15.2059895 47.202,15.9979895 48.786,15.9979895 C51.036,15.9979895 53.196,14.2159895 53.196,11.0659895 L53.196,11.0299895 C53.196,7.86198946 51.018,6.09798946 48.786,6.09798946 C47.238,6.09798946 46.248,6.88998946 45.546,7.87998946 L45.546,7.28598946 C45.546,6.67398946 45.06,6.18798946 44.448,6.18798946 C43.836,6.18798946 43.368,6.67398946 43.368,7.28598946 L43.368,17.6899895 Z M48.264,14.1079895 C46.788,14.1079895 45.492,12.8839895 45.492,11.0659895 L45.492,11.0299895 C45.492,9.21198946 46.788,7.98798946 48.264,7.98798946 C49.74,7.98798946 50.982,9.19398946 50.982,11.0299895 L50.982,11.0659895 C50.982,12.9379895 49.758,14.1079895 48.264,14.1079895 L48.264,14.1079895 Z M56.1511761,3.84798946 C56.1511761,4.49598946 56.6911761,4.92798946 57.3931761,4.92798946 C58.0951761,4.92798946 58.6351761,4.49598946 58.6351761,3.84798946 L58.6351761,3.73998946 C58.6351761,3.09198946 58.0951761,2.67798946 57.3931761,2.67798946 C56.6911761,2.67798946 56.1511761,3.09198946 56.1511761,3.73998946 L56.1511761,3.84798946 Z M56.3131761,14.8099895 C56.3131761,15.4219895 56.7991761,15.8899895 57.3931761,15.8899895 C58.0051761,15.8899895 58.4911761,15.4219895 58.4911761,14.8099895 L58.4911761,7.28598946 C58.4911761,6.67398946 58.0051761,6.18798946 57.3931761,6.18798946 C56.7811761,6.18798946 56.3131761,6.67398946 56.3131761,7.28598946 L56.3131761,14.8099895 Z M62.0763523,17.6899895 C62.0763523,18.3019895 62.5623523,18.7699895 63.1563523,18.7699895 C63.7683523,18.7699895 64.2543523,18.3019895 64.2543523,17.6899895 L64.2543523,14.3239895 C64.9203523,15.2059895 65.9103523,15.9979895 67.4943523,15.9979895 C69.7443523,15.9979895 71.9043523,14.2159895 71.9043523,11.0659895 L71.9043523,11.0299895 C71.9043523,7.86198946 69.7263523,6.09798946 67.4943523,6.09798946 C65.9463523,6.09798946 64.9563523,6.88998946 64.2543523,7.87998946 L64.2543523,7.28598946 C64.2543523,6.67398946 63.7683523,6.18798946 63.1563523,6.18798946 C62.5443523,6.18798946 62.0763523,6.67398946 62.0763523,7.28598946 L62.0763523,17.6899895 Z M66.9723523,14.1079895 C65.4963523,14.1079895 64.2003523,12.8839895 64.2003523,11.0659895 L64.2003523,11.0299895 C64.2003523,9.21198946 65.4963523,7.98798946 66.9723523,7.98798946 C68.4483523,7.98798946 69.6903523,9.19398946 69.6903523,11.0299895 L69.6903523,11.0659895 C69.6903523,12.9379895 68.4663523,14.1079895 66.9723523,14.1079895 L66.9723523,14.1079895 Z M79.4135284,16.0159895 C82.3475284,16.0159895 84.5075284,13.7659895 84.5075284,11.0659895 L84.5075284,11.0299895 C84.5075284,8.31198946 82.3655284,6.09798946 79.4495284,6.09798946 C76.5335284,6.09798946 74.3735284,8.34798946 74.3735284,11.0659895 L74.3735284,11.1019895 C74.3735284,13.8019895 76.5155284,16.0159895 79.4135284,16.0159895 L79.4135284,16.0159895 Z M79.4495284,14.1079895 C77.7575284,14.1079895 76.5515284,12.7219895 76.5515284,11.0659895 L76.5515284,11.0299895 C76.5515284,9.37398946 77.6675284,8.00598946 79.4135284,8.00598946 C81.1235284,8.00598946 82.3295284,9.39198946 82.3295284,11.0659895 L82.3295284,11.1019895 C82.3295284,12.7399895 81.2135284,14.1079895 79.4495284,14.1079895 L79.4495284,14.1079895 Z" id="pipo" fill="#555555"></path>
                <rect id="Rectangle-16" fill="#5CB882" x="0" y="0" width="10.3511018" height="10.3511018" rx="5.17555091"></rect>
                <rect id="Rectangle-16-Copy-2" fill="#5CB882" x="14" y="0" width="10.3511018" height="10.3511018" rx="5.17555091"></rect>
                <rect id="Rectangle-16-Copy" fill="#5CB882" x="0" y="14" width="10.3511018" height="10.3511018" rx="5.17555091"></rect>
            </g>
        </g>
    </g>
</svg>