<?xml version="1.0" encoding="UTF-8" standalone="no"?>
<svg width="45px" height="45px" viewBox="0 0 45 45" version="1.1" xmlns="http://www.w3.org/2000/svg" xmlns:xlink="http://www.w3.org/1999/xlink">
    <!-- Generator: Sketch 3.8.2 (29753) - http://www.bohemiancoding.com/sketch -->
    <title>github-icon</title>
    <desc>Created with Sketch.</desc>
    <defs></defs>
    <g id="Page-1" stroke="none" stroke-width="1" fill="none" fill-rule="evenodd">
        <g id="Desktop-HD-Copy-3" transform="translate(-698.000000, -2386.000000)" fill="#7C7E7D">
            <g id="github-icon" transform="translate(698.000000, 2386.000000)">
                <path d="M0.548780488,22.4986178 C0.548780488,26.5379976 1.53195028,30.2039253 3.49828988,33.4964009 C5.46462947,36.8955771 8.13214442,39.5707135 11.5008347,41.5218101 C14.869525,43.4729068 18.5354527,44.4484551 22.4986178,44.4484551 C26.4770258,44.4484551 30.1581964,43.4729068 33.5421297,41.5218101 C36.9260629,39.5554705 39.5897672,36.8841449 41.5332423,33.5078331 C43.4767175,30.1315213 44.4484551,26.4617829 44.4484551,22.4986178 C44.4484551,18.474481 43.4729068,14.7933103 41.5218101,11.4551059 C39.5554705,8.07117265 36.8841449,5.40746843 33.5078331,3.46399326 C30.1315213,1.52051808 26.4617829,0.548780488 22.4986178,0.548780488 C18.459238,0.548780488 14.7933103,1.53195028 11.5008347,3.49828988 C8.10165853,5.46462947 5.42652211,8.13214442 3.47542546,11.5008347 C1.52432881,14.869525 0.548780488,18.5354527 0.548780488,22.4986178 L0.548780488,22.4986178 Z M4.20708671,22.4986178 C4.20708671,20.059747 4.6872394,17.7047124 5.64754478,15.4335139 C6.60785016,13.1623155 7.91874322,11.2035973 9.58022396,9.55735955 C11.2417047,7.89587881 13.2004228,6.58879648 15.4563783,5.63611257 C17.7123338,4.68342866 20.059747,4.20708671 22.4986178,4.20708671 C24.9374886,4.20708671 27.2925232,4.68342866 29.5637217,5.63611257 C31.8349201,6.58879648 33.8012597,7.89587881 35.4627405,9.55735955 C37.1089783,11.2035973 38.4084391,13.1623155 39.361123,15.4335139 C40.3138069,17.7047124 40.7901489,20.059747 40.7901489,22.4986178 C40.7901489,25.1204039 40.2528352,27.6202465 39.1782077,29.9981455 C38.1035803,32.3760446 36.5945289,34.4300311 34.6510538,36.1601051 C32.7075786,37.8901791 30.4859197,39.1439111 27.9860771,39.9213012 L27.9860771,33.4735365 C27.9860771,31.8730275 27.3306306,30.6231062 26.0197375,29.7237726 C29.2359984,29.4341567 31.5872223,28.6186592 33.0734092,27.2772803 C34.5595961,25.9359014 35.3026896,23.8095109 35.3026896,20.8981088 C35.3026896,18.6421533 34.6091357,16.744407 33.2220279,15.2048698 C33.4964009,14.3817509 33.6335874,13.5891179 33.6335874,12.8269707 C33.6335874,11.698993 33.3744573,10.6624729 32.8561973,9.71741045 C31.8349201,9.71741045 30.9203436,9.88508282 30.1124676,10.2204276 C29.3045917,10.5557723 28.3138004,11.1350041 27.1400938,11.958123 C25.7225002,11.6380212 24.2591777,11.4779703 22.7501264,11.4779703 C21.0276738,11.4779703 19.4195434,11.6532642 17.925735,12.0038518 C16.7825143,11.16549 15.7955338,10.574826 14.9647934,10.2318598 C14.1340531,9.88889355 13.1928014,9.71741045 12.1410383,9.71741045 C11.6380212,10.6777158 11.3865127,11.7142359 11.3865127,12.8269707 C11.3865127,13.6196037 11.5160777,14.4198582 11.7752077,15.2277342 C10.3880999,16.7215426 9.69454603,18.6116674 9.69454603,20.8981088 C9.69454603,23.8095109 10.4338287,25.9282799 11.9123942,27.2544159 C13.3909596,28.5805519 15.7612372,29.3960493 19.0232269,29.7009082 C18.1543792,30.28014 17.5522829,31.1261233 17.2169382,32.2388581 C16.470034,32.4979881 15.6926439,32.6275531 14.884768,32.6275531 C14.2750503,32.6275531 13.7491688,32.4903667 13.3071234,32.2159937 C13.1699369,32.139779 13.0441827,32.0597535 12.9298606,31.9759173 C12.8155385,31.8920812 12.6974057,31.7891913 12.5754622,31.6672478 C12.4535186,31.5453042 12.3544395,31.4500358 12.2782248,31.3814426 C12.2020101,31.3128493 12.102931,31.1947165 11.9809874,31.0270442 C11.8590439,30.8593718 11.7790184,30.7526712 11.7409111,30.7069424 C11.7028037,30.6612135 11.6113461,30.53927 11.4665381,30.3411118 C11.3217302,30.1429535 11.2417047,30.0362529 11.2264618,30.02101 C10.5100435,29.0759475 9.65643868,28.6034163 8.66564741,28.6034163 C8.13214442,28.6034163 7.86539293,28.7177384 7.86539293,28.9463825 C7.86539293,29.0378402 7.99495794,29.1902696 8.25408796,29.4036708 C8.74186212,29.8304732 9.00099215,30.0591173 9.03147803,30.0896032 C9.39730865,30.3792191 9.60308838,30.5621344 9.64881721,30.6383491 C10.0908625,31.1870951 10.4262073,31.7891913 10.6548514,32.4446378 C11.5084562,34.3500057 12.9717787,35.3026896 15.0448189,35.3026896 C15.3801636,35.3026896 16.0356101,35.2264749 17.0111585,35.0740454 L17.0111585,39.9213012 C14.5113159,39.1439111 12.289657,37.8901791 10.3461818,36.1601051 C8.40270665,34.4300311 6.89365534,32.3760446 5.81902788,29.9981455 C4.74440043,27.6202465 4.20708671,25.1204039 4.20708671,22.4986178 L4.20708671,22.4986178 Z" id="Shape"></path>
            </g>
        </g>
    </g>
</svg>