<?xml version="1.0" encoding="UTF-8" standalone="no"?>
<svg width="62px" height="62px" viewBox="0 0 62 62" version="1.1" xmlns="http://www.w3.org/2000/svg" xmlns:xlink="http://www.w3.org/1999/xlink">
    <!-- Generator: Sketch 3.8.2 (29753) - http://www.bohemiancoding.com/sketch -->
    <title>group</title>
    <desc>Created with Sketch.</desc>
    <defs></defs>
    <g id="Page-1" stroke="none" stroke-width="1" fill="none" fill-rule="evenodd">
        <g id="Desktop-HD-Copy-3" transform="translate(-889.000000, -693.000000)">
            <g id="group" transform="translate(890.000000, 694.000000)">
                <ellipse id="Oval-15-Copy-5" stroke="#646766" fill="#FFFFFF" cx="30" cy="30" rx="30" ry="30"></ellipse>
                <g id="organization" transform="translate(18.000000, 16.000000)" fill="#646766">
                    <path d="M8.03640264,8.31319824 C8.96693348,9.388036 10.3035141,10.0766039 11.8431197,10.0766039 C13.3827252,10.0766039 14.7193059,9.388036 15.6498367,8.31319824 C16.225074,9.37124166 17.341711,10.0766039 18.6106166,10.0766039 C20.4885971,10.0766039 21.9943651,8.58190768 21.9943651,6.71773596 C21.9943651,4.85356423 20.4885971,3.35886798 18.6106166,3.35886798 C17.9169482,3.35886798 17.3078735,3.5771944 16.7833925,3.91308119 C16.2589115,1.67943399 14.2455811,0 11.8431197,0 C9.44065826,0 7.42732792,1.67943399 6.9028469,3.91308119 C6.37836589,3.5771944 5.76929116,3.35886798 5.07562272,3.35886798 C3.19764231,3.35886798 1.69187424,4.85356423 1.69187424,6.71773596 C1.69187424,8.58190768 3.19764231,10.0766039 5.07562272,10.0766039 C6.3445284,10.0766039 7.4611654,9.37124166 8.03640264,8.31319824 L8.03640264,8.31319824 Z M16.8341487,5.76045858 C17.1725235,5.12227367 17.8323545,4.68562083 18.6106166,4.68562083 C19.7272536,4.68562083 20.6408657,5.60930952 20.6408657,6.70094162 C20.6408657,7.79257371 19.7103349,8.7162624 18.6106166,8.7162624 C17.5108984,8.7162624 16.6311238,7.82616239 16.5972863,6.75132464 C16.6987988,6.43223218 16.7833925,6.09634538 16.8341487,5.76045858 L16.8341487,5.76045858 Z M11.8431197,1.64584531 C13.7211001,1.64584531 15.2607057,3.17413024 15.2607057,5.03830197 C15.2607057,6.90247369 13.7211001,8.43075862 11.8431197,8.43075862 C9.96513928,8.43075862 8.42553372,6.90247369 8.42553372,5.03830197 C8.42553372,3.17413024 9.96513928,1.64584531 11.8431197,1.64584531 L11.8431197,1.64584531 Z M5.07562272,8.73305674 C3.95898572,8.73305674 3.04537363,7.80936805 3.04537363,6.71773596 C3.04537363,5.62610386 3.97590447,4.70241517 5.07562272,4.70241517 C5.83696613,4.70241517 6.49679708,5.15586235 6.85209067,5.77725292 C6.9028469,6.11313972 6.98744061,6.46582086 7.08895307,6.76811897 C7.05511558,7.84295673 6.19225972,8.73305674 5.07562272,8.73305674 L5.07562272,8.73305674 Z M21.9943651,10.0766039 L1.69187424,10.0766039 C0.761343408,10.0766039 0,10.8323492 0,11.7560379 L0,16.7943399 C0,17.7180286 0.761343408,18.4737739 1.69187424,18.4737739 L1.69187424,21.8326419 C1.69187424,22.7563305 2.45321765,23.5120758 3.38374848,23.5120758 L5.07562272,23.5120758 C6.00615355,23.5120758 6.76749696,22.7563305 6.76749696,21.8326419 L6.76749696,20.1532079 L8.4593712,20.1532079 L8.4593712,25.1915098 C8.4593712,26.1151985 9.22071461,26.8709438 10.1512454,26.8709438 L13.5349939,26.8709438 C14.4655248,26.8709438 15.2268682,26.1151985 15.2268682,25.1915098 L15.2268682,20.1532079 L16.9187424,20.1532079 L16.9187424,21.8326419 C16.9187424,22.7563305 17.6800858,23.5120758 18.6106166,23.5120758 L20.3024909,23.5120758 C21.2330217,23.5120758 21.9943651,22.7563305 21.9943651,21.8326419 L21.9943651,18.4737739 C22.924896,18.4737739 23.6862394,17.7180286 23.6862394,16.7943399 L23.6862394,11.7560379 C23.6862394,10.8323492 22.924896,10.0766039 21.9943651,10.0766039 L21.9943651,10.0766039 Z M5.07562272,21.8326419 L3.38374848,21.8326419 L3.38374848,16.7943399 L1.69187424,16.7943399 L1.69187424,11.7560379 L5.07562272,11.7560379 L5.07562272,21.8326419 L5.07562272,21.8326419 Z M16.9187424,18.4737739 L15.2268682,18.4737739 L15.2268682,15.1149059 L13.5349939,15.1149059 L13.5349939,25.1915098 L10.1512454,25.1915098 L10.1512454,15.1149059 L8.4593712,15.1149059 L8.4593712,18.4737739 L6.76749696,18.4737739 L6.76749696,11.7560379 L16.9187424,11.7560379 L16.9187424,18.4737739 L16.9187424,18.4737739 Z M21.9943651,16.7943399 L20.3024909,16.7943399 L20.3024909,21.8326419 L18.6106166,21.8326419 L18.6106166,11.7560379 L21.9943651,11.7560379 L21.9943651,16.7943399 L21.9943651,16.7943399 Z" id="Shape"></path>
                </g>
            </g>
        </g>
    </g>
</svg>