<?xml version="1.0" encoding="UTF-8" standalone="no"?>
<svg width="62px" height="62px" viewBox="0 0 62 62" version="1.1" xmlns="http://www.w3.org/2000/svg" xmlns:xlink="http://www.w3.org/1999/xlink">
    <!-- Generator: Sketch 3.8.2 (29753) - http://www.bohemiancoding.com/sketch -->
    <title>lock</title>
    <desc>Created with Sketch.</desc>
    <defs></defs>
    <g id="Page-1" stroke="none" stroke-width="1" fill="none" fill-rule="evenodd">
        <g id="Desktop-HD-Copy-3" transform="translate(-249.000000, -693.000000)">
            <g id="lock" transform="translate(250.000000, 694.000000)">
                <ellipse id="Oval-15-Copy-3" stroke="#646766" fill="#FFFFFF" cx="30" cy="30" rx="30" ry="30"></ellipse>
                <g transform="translate(19.000000, 15.000000)" id="Shape" fill="#646766">
                    <path d="M7.48328991,24.0563369 L5.61246743,24.0563369 L5.61246743,22.2058494 L7.48328991,22.2058494 L7.48328991,24.0563369 L7.48328991,24.0563369 Z M22.4498697,12.9534122 L22.4498697,25.9068243 C22.4498697,26.9245924 21.6079996,27.7573118 20.5790473,27.7573118 L1.87082248,27.7573118 C0.841870115,27.7573118 0,26.9245924 0,25.9068243 L0,12.9534122 C0,11.9356441 0.841870115,11.1029247 1.87082248,11.1029247 L3.74164496,11.1029247 L3.74164496,7.4019498 C3.74164496,3.33087741 7.10912541,0 11.2249349,0 C15.3407443,0 18.7082248,3.33087741 18.7082248,7.4019498 L18.7082248,11.1029247 L20.5790473,11.1029247 C21.6079996,11.1029247 22.4498697,11.9356441 22.4498697,12.9534122 L22.4498697,12.9534122 Z M7.10912541,11.1029247 L15.3594525,11.1029247 L15.3594525,7.4019498 C15.3594525,5.14435511 13.5260465,3.33087741 11.2436431,3.33087741 C8.96123967,3.33087741 7.12783364,5.14435511 7.12783364,7.4019498 L7.12783364,11.1029247 L7.10912541,11.1029247 Z M20.5790473,12.9534122 L3.74164496,12.9534122 L3.74164496,25.9068243 L20.5790473,25.9068243 L20.5790473,12.9534122 L20.5790473,12.9534122 Z M7.48328991,14.8038996 L5.61246743,14.8038996 L5.61246743,16.6543871 L7.48328991,16.6543871 L7.48328991,14.8038996 L7.48328991,14.8038996 Z M7.48328991,18.5048745 L5.61246743,18.5048745 L5.61246743,20.355362 L7.48328991,20.355362 L7.48328991,18.5048745 L7.48328991,18.5048745 Z"></path>
                </g>
            </g>
        </g>
    </g>
</svg>